<mxfile host="app.diagrams.net" agent="Mozilla/5.0 (Windows NT 10.0; Win64; x64) AppleWebKit/537.36 (KHTML, like Gecko) Chrome/136.0.0.0 Safari/537.36 Edg/136.0.0.0" version="27.0.6">
  <diagram name="Page-1" id="U5kLDkg_2VWAw-F3KC1Z">
    <mxGraphModel dx="1700" dy="938" grid="1" gridSize="10" guides="1" tooltips="1" connect="1" arrows="1" fold="1" page="1" pageScale="1" pageWidth="827" pageHeight="1169" math="0" shadow="0">
      <root>
        <mxCell id="0" />
        <mxCell id="1" parent="0" />
        <mxCell id="4L6ppI-mjDoICBfPSApn-2" style="edgeStyle=orthogonalEdgeStyle;rounded=0;orthogonalLoop=1;jettySize=auto;html=1;exitX=0.443;exitY=1.067;exitDx=0;exitDy=0;exitPerimeter=0;" parent="1" edge="1">
          <mxGeometry relative="1" as="geometry">
            <mxPoint x="590" y="79.5" as="targetPoint" />
            <mxPoint x="420.00000000000006" y="79.51999999999998" as="sourcePoint" />
            <Array as="points">
              <mxPoint x="480" y="79.5" />
              <mxPoint x="480" y="79.5" />
            </Array>
          </mxGeometry>
        </mxCell>
        <mxCell id="a-JTOZS0tko5zQEkkPBi-2" style="edgeStyle=orthogonalEdgeStyle;rounded=0;orthogonalLoop=1;jettySize=auto;html=1;" edge="1" parent="1" source="4L6ppI-mjDoICBfPSApn-1">
          <mxGeometry relative="1" as="geometry">
            <mxPoint x="360" y="220" as="targetPoint" />
          </mxGeometry>
        </mxCell>
        <mxCell id="4L6ppI-mjDoICBfPSApn-1" value="&lt;span style=&quot;color: rgb(0, 0, 0); font-size: medium; text-align: start;&quot;&gt;OpenSARWake data analysis&lt;/span&gt;" style="rounded=0;whiteSpace=wrap;html=1;fontFamily=Times New Roman;" parent="1" vertex="1">
          <mxGeometry x="300" y="50" width="120" height="60" as="geometry" />
        </mxCell>
        <mxCell id="a-JTOZS0tko5zQEkkPBi-1" value="&lt;span style=&quot;color: rgb(0, 0, 0); font-size: medium; text-align: start;&quot;&gt;Wake type classification and display&lt;/span&gt;" style="ellipse;whiteSpace=wrap;html=1;fontFamily=Times New Roman;" vertex="1" parent="1">
          <mxGeometry x="580" y="40" width="120" height="80" as="geometry" />
        </mxCell>
        <mxCell id="a-JTOZS0tko5zQEkkPBi-51" style="edgeStyle=orthogonalEdgeStyle;rounded=0;orthogonalLoop=1;jettySize=auto;html=1;exitX=1;exitY=0.5;exitDx=0;exitDy=0;entryX=0;entryY=0.5;entryDx=0;entryDy=0;" edge="1" parent="1" source="a-JTOZS0tko5zQEkkPBi-3" target="a-JTOZS0tko5zQEkkPBi-10">
          <mxGeometry relative="1" as="geometry">
            <mxPoint x="590" y="250" as="targetPoint" />
          </mxGeometry>
        </mxCell>
        <mxCell id="a-JTOZS0tko5zQEkkPBi-3" value="Traditional Image Processing" style="ellipse;whiteSpace=wrap;html=1;fontFamily=Times New Roman;" vertex="1" parent="1">
          <mxGeometry x="300" y="210" width="120" height="80" as="geometry" />
        </mxCell>
        <mxCell id="a-JTOZS0tko5zQEkkPBi-4" value="&lt;h1 style=&quot;margin-top: 0px;&quot;&gt;&lt;span style=&quot;color: rgb(0, 0, 0); font-family: &amp;quot;Noto Sans SC&amp;quot;; font-size: medium; font-weight: 400;&quot;&gt;Project Wake detection from SAR images&lt;/span&gt;&lt;/h1&gt;&lt;div&gt;&lt;span style=&quot;color: rgb(0, 0, 0); font-family: &amp;quot;Noto Sans SC&amp;quot;; font-size: medium; font-weight: 400;&quot;&gt;Yiming Tu&lt;/span&gt;&lt;/div&gt;" style="text;html=1;whiteSpace=wrap;overflow=hidden;rounded=0;" vertex="1" parent="1">
          <mxGeometry x="20" y="60" width="180" height="160" as="geometry" />
        </mxCell>
        <mxCell id="a-JTOZS0tko5zQEkkPBi-55" style="edgeStyle=orthogonalEdgeStyle;rounded=0;orthogonalLoop=1;jettySize=auto;html=1;exitX=1;exitY=0.5;exitDx=0;exitDy=0;" edge="1" parent="1" source="a-JTOZS0tko5zQEkkPBi-10">
          <mxGeometry relative="1" as="geometry">
            <mxPoint x="780" y="250" as="targetPoint" />
          </mxGeometry>
        </mxCell>
        <mxCell id="a-JTOZS0tko5zQEkkPBi-10" value="Preprocess Image" style="ellipse;whiteSpace=wrap;html=1;" vertex="1" parent="1">
          <mxGeometry x="597.5" y="225" width="72.5" height="50" as="geometry" />
        </mxCell>
        <mxCell id="a-JTOZS0tko5zQEkkPBi-56" style="edgeStyle=orthogonalEdgeStyle;rounded=0;orthogonalLoop=1;jettySize=auto;html=1;exitX=1;exitY=0.5;exitDx=0;exitDy=0;entryX=0;entryY=0.5;entryDx=0;entryDy=0;" edge="1" parent="1" source="a-JTOZS0tko5zQEkkPBi-17" target="a-JTOZS0tko5zQEkkPBi-23">
          <mxGeometry relative="1" as="geometry" />
        </mxCell>
        <mxCell id="a-JTOZS0tko5zQEkkPBi-17" value="Gaussian Blur" style="ellipse;whiteSpace=wrap;html=1;aspect=fixed;" vertex="1" parent="1">
          <mxGeometry x="780" y="215" width="70" height="70" as="geometry" />
        </mxCell>
        <mxCell id="a-JTOZS0tko5zQEkkPBi-57" style="edgeStyle=orthogonalEdgeStyle;rounded=0;orthogonalLoop=1;jettySize=auto;html=1;exitX=0.5;exitY=1;exitDx=0;exitDy=0;entryX=0.5;entryY=0;entryDx=0;entryDy=0;" edge="1" parent="1" source="a-JTOZS0tko5zQEkkPBi-23" target="a-JTOZS0tko5zQEkkPBi-25">
          <mxGeometry relative="1" as="geometry" />
        </mxCell>
        <mxCell id="a-JTOZS0tko5zQEkkPBi-23" value="Histogram Equalization" style="ellipse;whiteSpace=wrap;html=1;" vertex="1" parent="1">
          <mxGeometry x="950" y="222.5" width="80" height="55" as="geometry" />
        </mxCell>
        <mxCell id="a-JTOZS0tko5zQEkkPBi-59" style="edgeStyle=orthogonalEdgeStyle;rounded=0;orthogonalLoop=1;jettySize=auto;html=1;exitX=0;exitY=0.5;exitDx=0;exitDy=0;entryX=1;entryY=0.5;entryDx=0;entryDy=0;" edge="1" parent="1" source="a-JTOZS0tko5zQEkkPBi-25" target="a-JTOZS0tko5zQEkkPBi-27">
          <mxGeometry relative="1" as="geometry" />
        </mxCell>
        <mxCell id="a-JTOZS0tko5zQEkkPBi-25" value="&lt;br&gt;&lt;div&gt;Extract ROI from wake coordinates&lt;br&gt;&lt;br&gt;&lt;/div&gt;" style="ellipse;whiteSpace=wrap;html=1;" vertex="1" parent="1">
          <mxGeometry x="945" y="340" width="90" height="80" as="geometry" />
        </mxCell>
        <mxCell id="a-JTOZS0tko5zQEkkPBi-60" style="edgeStyle=orthogonalEdgeStyle;rounded=0;orthogonalLoop=1;jettySize=auto;html=1;exitX=0;exitY=0.5;exitDx=0;exitDy=0;entryX=1;entryY=0.5;entryDx=0;entryDy=0;" edge="1" parent="1" source="a-JTOZS0tko5zQEkkPBi-27" target="a-JTOZS0tko5zQEkkPBi-31">
          <mxGeometry relative="1" as="geometry" />
        </mxCell>
        <mxCell id="a-JTOZS0tko5zQEkkPBi-27" value="Edge Detection" style="ellipse;whiteSpace=wrap;html=1;" vertex="1" parent="1">
          <mxGeometry x="760" y="340" width="80" height="80" as="geometry" />
        </mxCell>
        <mxCell id="a-JTOZS0tko5zQEkkPBi-29" value="&#xa;Canny Detection&#xa;&#xa;" style="ellipse;whiteSpace=wrap;html=1;" vertex="1" parent="1">
          <mxGeometry x="590" y="340" width="80" height="80" as="geometry" />
        </mxCell>
        <mxCell id="a-JTOZS0tko5zQEkkPBi-64" style="edgeStyle=orthogonalEdgeStyle;rounded=0;orthogonalLoop=1;jettySize=auto;html=1;exitX=0;exitY=0.5;exitDx=0;exitDy=0;entryX=1;entryY=0.5;entryDx=0;entryDy=0;" edge="1" parent="1" source="a-JTOZS0tko5zQEkkPBi-31" target="a-JTOZS0tko5zQEkkPBi-37">
          <mxGeometry relative="1" as="geometry" />
        </mxCell>
        <mxCell id="a-JTOZS0tko5zQEkkPBi-31" value="&lt;div&gt;&lt;br&gt;&lt;/div&gt;Morphological Closing&lt;div&gt;&lt;br/&gt;&lt;/div&gt;" style="ellipse;whiteSpace=wrap;html=1;" vertex="1" parent="1">
          <mxGeometry x="460" y="340" width="80" height="80" as="geometry" />
        </mxCell>
        <mxCell id="a-JTOZS0tko5zQEkkPBi-37" value="Direction Estimation" style="ellipse;whiteSpace=wrap;html=1;" vertex="1" parent="1">
          <mxGeometry x="320" y="340" width="80" height="80" as="geometry" />
        </mxCell>
        <mxCell id="a-JTOZS0tko5zQEkkPBi-39" value="&#xa;Hough Transform (angle filter)&#xa;&#xa;" style="ellipse;whiteSpace=wrap;html=1;" vertex="1" parent="1">
          <mxGeometry x="240" y="470" width="80" height="80" as="geometry" />
        </mxCell>
        <mxCell id="a-JTOZS0tko5zQEkkPBi-41" value="&#xa;Radon Transform (top 3 angles)&#xa;&#xa;" style="ellipse;whiteSpace=wrap;html=1;" vertex="1" parent="1">
          <mxGeometry x="400" y="470" width="80" height="80" as="geometry" />
        </mxCell>
        <mxCell id="a-JTOZS0tko5zQEkkPBi-80" value="" style="edgeStyle=orthogonalEdgeStyle;rounded=0;orthogonalLoop=1;jettySize=auto;html=1;" edge="1" parent="1" source="a-JTOZS0tko5zQEkkPBi-43" target="a-JTOZS0tko5zQEkkPBi-79">
          <mxGeometry relative="1" as="geometry" />
        </mxCell>
        <mxCell id="a-JTOZS0tko5zQEkkPBi-43" value="&lt;div&gt;&lt;br&gt;&lt;/div&gt;Compare with Label Angle&lt;div&gt;&lt;br/&gt;&lt;/div&gt;" style="ellipse;whiteSpace=wrap;html=1;" vertex="1" parent="1">
          <mxGeometry x="320" y="620" width="80" height="80" as="geometry" />
        </mxCell>
        <mxCell id="a-JTOZS0tko5zQEkkPBi-65" value="" style="strokeWidth=2;html=1;shape=mxgraph.flowchart.annotation_2;align=left;labelPosition=right;pointerEvents=1;direction=south;" vertex="1" parent="1">
          <mxGeometry x="280" y="420" width="160" height="50" as="geometry" />
        </mxCell>
        <mxCell id="a-JTOZS0tko5zQEkkPBi-76" value="" style="strokeWidth=2;html=1;shape=mxgraph.flowchart.annotation_2;align=left;labelPosition=right;pointerEvents=1;direction=north;" vertex="1" parent="1">
          <mxGeometry x="280" y="550" width="160" height="70" as="geometry" />
        </mxCell>
        <mxCell id="a-JTOZS0tko5zQEkkPBi-82" value="" style="edgeStyle=orthogonalEdgeStyle;rounded=0;orthogonalLoop=1;jettySize=auto;html=1;entryX=0;entryY=0.5;entryDx=0;entryDy=0;" edge="1" parent="1" source="a-JTOZS0tko5zQEkkPBi-79" target="a-JTOZS0tko5zQEkkPBi-81">
          <mxGeometry relative="1" as="geometry">
            <mxPoint x="460" y="630" as="targetPoint" />
            <Array as="points">
              <mxPoint x="460" y="770" />
              <mxPoint x="460" y="630" />
            </Array>
          </mxGeometry>
        </mxCell>
        <mxCell id="a-JTOZS0tko5zQEkkPBi-84" value="" style="edgeStyle=orthogonalEdgeStyle;rounded=0;orthogonalLoop=1;jettySize=auto;html=1;" edge="1" parent="1" source="a-JTOZS0tko5zQEkkPBi-79" target="a-JTOZS0tko5zQEkkPBi-83">
          <mxGeometry relative="1" as="geometry">
            <Array as="points">
              <mxPoint x="460" y="770" />
              <mxPoint x="460" y="770" />
            </Array>
          </mxGeometry>
        </mxCell>
        <mxCell id="a-JTOZS0tko5zQEkkPBi-79" value="Visualization" style="rounded=1;whiteSpace=wrap;html=1;" vertex="1" parent="1">
          <mxGeometry x="300" y="740" width="120" height="60" as="geometry" />
        </mxCell>
        <mxCell id="a-JTOZS0tko5zQEkkPBi-81" value="Original + ROI + Boxes" style="ellipse;whiteSpace=wrap;html=1;rounded=1;" vertex="1" parent="1">
          <mxGeometry x="500" y="590" width="80" height="80" as="geometry" />
        </mxCell>
        <mxCell id="a-JTOZS0tko5zQEkkPBi-83" value="Edges &amp;amp; Hough Lines" style="ellipse;whiteSpace=wrap;html=1;rounded=1;" vertex="1" parent="1">
          <mxGeometry x="500" y="730" width="80" height="80" as="geometry" />
        </mxCell>
        <mxCell id="a-JTOZS0tko5zQEkkPBi-87" style="edgeStyle=orthogonalEdgeStyle;rounded=0;orthogonalLoop=1;jettySize=auto;html=1;exitX=0;exitY=0.5;exitDx=0;exitDy=0;" edge="1" parent="1" source="a-JTOZS0tko5zQEkkPBi-86">
          <mxGeometry relative="1" as="geometry">
            <mxPoint x="460" y="760" as="targetPoint" />
          </mxGeometry>
        </mxCell>
        <mxCell id="a-JTOZS0tko5zQEkkPBi-86" value="Radon Transform" style="ellipse;whiteSpace=wrap;html=1;" vertex="1" parent="1">
          <mxGeometry x="500" y="860" width="80" height="80" as="geometry" />
        </mxCell>
      </root>
    </mxGraphModel>
  </diagram>
</mxfile>
